# xmcd
#
# Track frame offsets: 
#        150
#        15022
#        28312
#        43910
#        58547
#        70940
#        85922
#        98930
#        113275
#        126717
#        141085
#        156735
#        171052
#        186552
#        201770
#        217197
#        232250
#        247192
#
# Disc length: 3471 seconds
#
# Revision: 6
# Processed by: cddbd v1.5.1PL0 Copyright (c) Steve Scherf et al.
# Submitted via: ExactAudioCopy v0.95a5
#
DISCID=150d8d12
DTITLE=Bessie Smith - The Essential Bessie Smith [CD1]
DYEAR=1997
DGENRE=Blues
TTITLE0=Aggravatin' Papa
TTITLE1=Baby Won't You Please Come Home
TTITLE2='Taint Nobody's Bizness If I Do
TTITLE3=Jail-House Blues
TTITLE4=Graveyard Dream Blues
TTITLE5=Ticket Agent, Ease Your Window Down
TTITLE6=Boweavil Blues
TTITLE7=Weeping Willow Blues
TTITLE8=Dying Gambler's Blues
TTITLE9=St. Louis Blues
TTITLE10=You've Been A Good Ole Wagon
TTITLE11=Cake Walkin' Babies From Home
TTITLE12=Careless Love Blues
TTITLE13=I Ain't Goin' To Play Second Fiddle
TTITLE14=At The Christmas Ball
TTITLE15=Jazzbo Brown From Memphis Town
TTITLE16=Backwater Blues
TTITLE17=After You've Gone
EXTD=ID3G: 0
EXTT0=
EXTT1=
EXTT2=
EXTT3=
EXTT4=
EXTT5=
EXTT6=
EXTT7=
EXTT8=
EXTT9=
EXTT10=
EXTT11=
EXTT12=
EXTT13=
EXTT14=
EXTT15=
EXTT16=
EXTT17=
PLAYORDER=
